<svg width="77" height="62" viewBox="0 0 77 62" fill="none" xmlns="http://www.w3.org/2000/svg">
<path d="M34.875 10.4201C48.4125 18.2359 55.1812 22.1439 56.4323 27.6989C56.8559 29.5795 56.8559 31.5308 56.4323 33.4115C55.1812 38.9664 48.4125 42.8744 34.875 50.6902C21.3375 58.5061 14.5688 62.4141 9.13246 60.72C7.292 60.1465 5.60211 59.1709 4.1852 57.8637C0 54.0028 0 46.1869 0 30.5552C0 14.9234 0 7.10752 4.1852 3.24657C5.60211 1.93943 7.292 0.963777 9.13246 0.390265C14.5688 -1.30375 21.3375 2.60419 34.875 10.4201Z" fill="#EEEEEE"/>
<path d="M60 8.5C60 3.80558 63.8056 0 68.5 0C73.1944 0 77 3.80558 77 8.5V52.5C77 57.1944 73.1944 61 68.5 61C63.8056 61 60 57.1944 60 52.5V8.5Z" fill="#EEEEEE"/>
</svg>
