<svg width="47" height="61" viewBox="0 0 47 61" fill="none" xmlns="http://www.w3.org/2000/svg">
<path d="M0 8C0 5.19974 0 3.79961 0.544967 2.73005C1.02433 1.78924 1.78924 1.02433 2.73005 0.544967C3.79961 0 5.19974 0 8 0C10.8003 0 12.2004 0 13.27 0.544967C14.2108 1.02433 14.9757 1.78924 15.455 2.73005C16 3.79961 16 5.19974 16 8V53C16 55.8003 16 57.2004 15.455 58.27C14.9757 59.2108 14.2108 59.9757 13.27 60.455C12.2004 61 10.8003 61 8 61C5.19974 61 3.79961 61 2.73005 60.455C1.78924 59.9757 1.02433 59.2108 0.544967 58.27C0 57.2004 0 55.8003 0 53V8Z" fill="#fff"/>
<path d="M31 8C31 5.19974 31 3.79961 31.545 2.73005C32.0243 1.78924 32.7892 1.02433 33.73 0.544967C34.7996 0 36.1997 0 39 0C41.8003 0 43.2004 0 44.27 0.544967C45.2108 1.02433 45.9757 1.78924 46.455 2.73005C47 3.79961 47 5.19974 47 8V53C47 55.8003 47 57.2004 46.455 58.27C45.9757 59.2108 45.2108 59.9757 44.27 60.455C43.2004 61 41.8003 61 39 61C36.1997 61 34.7996 61 33.73 60.455C32.7892 59.9757 32.0243 59.2108 31.545 58.27C31 57.2004 31 55.8003 31 53V8Z" fill="#fff"/>
</svg>
