<svg width="77" height="62" viewBox="0 0 77 62" fill="none" xmlns="http://www.w3.org/2000/svg">
<path d="M42.125 10.4201C28.5875 18.2359 21.8188 22.1439 20.5677 27.6989C20.1441 29.5795 20.1441 31.5308 20.5677 33.4115C21.8188 38.9664 28.5875 42.8744 42.125 50.6902C55.6625 58.5061 62.4312 62.4141 67.8675 60.72C69.708 60.1465 71.3979 59.1709 72.8148 57.8637C77 54.0028 77 46.1869 77 30.5552C77 14.9234 77 7.10752 72.8148 3.24657C71.3979 1.93943 69.708 0.963777 67.8675 0.390265C62.4312 -1.30375 55.6625 2.60419 42.125 10.4201Z" fill="#EEEEEE"/>
<path d="M17 8.5C17 3.80558 13.1944 0 8.5 0C3.80558 0 0 3.80558 0 8.5V52.5C0 57.1944 3.80558 61 8.5 61C13.1944 61 17 57.1944 17 52.5V8.5Z" fill="#EEEEEE"/>
</svg>
