<svg width="21" height="16" viewBox="0 0 21 16" fill="none" xmlns="http://www.w3.org/2000/svg">
<path fill-rule="evenodd" clip-rule="evenodd" d="M18.1965 1.40839C17.9665 1.06439 17.4985 0.97139 17.1555 1.20339C16.8115 1.43339 16.7195 1.89939 16.9505 2.24439C19.2615 5.69139 19.2615 10.3214 16.9505 13.7654C16.7195 14.1094 16.8115 14.5754 17.1555 14.8064C17.2835 14.8924 17.4285 14.9334 17.5725 14.9334C17.8145 14.9334 18.0515 14.8174 18.1965 14.6014C20.8425 10.6584 20.8425 5.35639 18.1965 1.40839Z" fill="#fff"/>
<path fill-rule="evenodd" clip-rule="evenodd" d="M14.7644 3.61246C14.4014 3.81146 14.2694 4.26846 14.4704 4.63146C15.6204 6.7165 15.6204 9.3015 14.4704 11.3785C14.2694 11.7405 14.4014 12.1965 14.7634 12.3975C14.8784 12.4615 15.0034 12.4915 15.1264 12.4915C15.3894 12.4915 15.6454 12.3515 15.7834 12.1045C17.1804 9.5815 17.1814 6.4395 15.7834 3.90646C15.5824 3.54346 15.1264 3.41246 14.7644 3.61246Z" fill="#fff"/>
<path fill-rule="evenodd" clip-rule="evenodd" d="M10.5433 1.11839C8.8373 0.103388 7.26825 1.30839 6.12225 2.18539C5.65225 2.54539 5.20825 2.88539 4.87125 2.99639C4.41325 3.14639 4.01825 3.19439 3.63525 3.24039C2.96825 3.31939 2.27925 3.40139 1.52425 4.04239C0.315254 5.06939 0.317254 6.6974 0.319254 8.0054C0.317254 9.3124 0.315254 10.9404 1.52525 11.9684C2.27925 12.6084 2.96825 12.6904 3.63525 12.7694C4.01825 12.8154 4.41325 12.8634 4.87125 13.0144C5.20825 13.1254 5.65125 13.4654 6.12125 13.8244C6.95225 14.4614 8.0063 15.2684 9.1883 15.2684C9.6353 15.2684 10.1003 15.1534 10.5783 14.8694C11.9443 13.8984 12.4283 12.1014 12.4283 8.0054C12.4283 3.85439 11.9613 2.12239 10.5433 1.11839Z" fill="#fff"/>
</svg>
