<svg width="127" height="395" viewBox="0 0 127 395" fill="none" xmlns="http://www.w3.org/2000/svg">
<path d="M76.9982 129.973C104.612 129.973 126.998 107.588 126.998 79.9733C126.998 52.3591 104.612 29.9733 76.9982 29.9733C49.3839 29.9733 26.9982 52.3591 26.9982 79.9733C26.9982 107.588 49.3839 129.973 76.9982 129.973Z" fill="#2C2C2E"/>
<path d="M49.0822 389.453L32.4012 373.517L28.2562 377.855L44.9372 393.791C46.1352 394.936 48.0342 394.892 49.1782 393.694C50.3232 392.497 50.2802 390.598 49.0822 389.453Z" fill="#949494"/>
<path d="M85.3543 97.3183L68.6492 97.5383C68.6662 98.9343 70.4722 256.429 69.6452 279.492C68.9112 299.982 68.9112 299.982 29.2662 353.148C27.9562 354.906 28.3192 357.393 30.0772 358.704L37.1082 363.945C38.8652 365.255 41.3512 364.892 42.6612 363.135C83.8162 307.942 85.4232 305.788 86.3422 280.09C87.1832 256.621 85.4303 103.037 85.3543 97.3183Z" fill="#949494"/>
<path d="M85.7352 82.9863C96.7712 51.8333 107.696 20.6323 111.811 8.86333C112.723 6.25533 111.347 3.40333 108.739 2.49233L102.406 0.281335C99.8002 -0.628665 96.9512 0.741334 96.0402 3.34633C91.9832 14.9433 81.0512 46.1523 70.0292 77.2693L85.7352 82.9863Z" fill="#949494"/>
<path d="M114.235 11.5623C114.235 11.5623 99.7781 6.06134 93.0201 3.48734C90.3891 2.48534 87.4571 3.85534 86.5271 6.51234L75.6512 37.5433C74.7292 40.0993 76.0181 42.9233 78.5521 43.9033L99.7381 52.0923C102.355 53.1043 105.292 51.7643 106.244 49.1243L117.186 17.8703C118.069 15.3163 116.762 12.5213 114.235 11.5623Z" fill="#535357"/>
<path d="M84.5422 12.1773L79.7182 25.9413L110.232 37.7363L115.107 23.8113C106.222 20.4303 94.3902 15.9273 84.5422 12.1773Z" fill="#C4C4C4"/>
<path d="M76.9982 104.973C90.8053 104.973 101.998 93.7804 101.998 79.9733C101.998 66.1662 90.8053 54.9733 76.9982 54.9733C63.1911 54.9733 51.9982 66.1662 51.9982 79.9733C51.9982 93.7804 63.1911 104.973 76.9982 104.973Z" fill="#C4C4C4"/>
<path d="M60.8522 60.8933C57.4422 63.7823 54.8192 67.5673 53.3432 71.8873L70.7312 89.4343L70.7362 89.4293C72.6982 91.3333 75.5192 92.3563 78.5672 91.8403C82.2622 91.2143 85.3072 88.2473 85.8652 84.5413C86.1352 82.7493 85.9982 80.8263 85.9982 80.8263L60.8522 60.8933Z" fill="#949494"/>
<path d="M83.4542 73.7113L83.4592 73.7063L57.7082 47.7203C55.7552 45.7673 52.5902 45.7673 50.6372 47.7203L44.9802 53.3773C43.0272 55.3303 43.0272 58.4953 44.9802 60.4483L70.7312 86.4343L70.7362 86.4293C72.6982 88.3333 75.5192 89.3563 78.5672 88.8403C82.2622 88.2143 85.2392 85.2363 85.8652 81.5413C86.3812 78.4933 85.3582 75.6733 83.4542 73.7113Z" fill="#F5F5F5"/>
<path d="M104.209 111.851C108.351 111.851 111.709 108.493 111.709 104.351C111.709 100.209 108.351 96.8513 104.209 96.8513C100.067 96.8513 96.7092 100.209 96.7092 104.351C96.7092 108.493 100.067 111.851 104.209 111.851Z" fill="#C4C4C4"/>
<path d="M41.6592 369.832C41.5902 369.905 19.3752 392.95 19.3752 392.95C17.8032 394.541 15.2292 394.517 13.6722 392.909L1.11719 379.881C-0.384806 378.319 -0.371795 375.845 1.1532 374.309C1.1532 374.309 23.0622 351.652 23.1412 351.58C28.1862 346.482 36.3972 346.419 41.5062 351.445C46.6252 356.482 46.6962 364.713 41.6592 369.832Z" fill="#535357"/>
</svg>
