<svg width="17" height="16" viewBox="0 0 17 16" fill="none" xmlns="http://www.w3.org/2000/svg">
<path fill-rule="evenodd" clip-rule="evenodd" d="M15.3104 3.98992C15.1104 3.62692 14.6534 3.49592 14.2914 3.69592C13.9284 3.89492 13.7964 4.35192 13.9974 4.71492C15.1184 6.7479 15.1184 9.2689 13.9974 11.2949C13.7964 11.6569 13.9284 12.1139 14.2904 12.3139C14.4054 12.3779 14.5304 12.4079 14.6534 12.4079C14.9164 12.4079 15.1734 12.2679 15.3104 12.0209C16.6784 9.5489 16.6784 6.4699 15.3104 3.98992Z" fill="#fff"/>
<path fill-rule="evenodd" clip-rule="evenodd" d="M10.1771 1.26128C8.5031 0.266284 6.9651 1.44528 5.84312 2.30528C5.38412 2.65728 4.95012 2.98828 4.62112 3.09628C4.17512 3.24328 3.78812 3.29028 3.41512 3.33428C2.76112 3.41228 2.08612 3.49328 1.34612 4.12128C0.158119 5.13028 0.161119 6.7233 0.164119 8.0043C0.161119 9.2843 0.158119 10.8773 1.34712 11.8883C2.08812 12.5173 2.76412 12.5973 3.41812 12.6753C3.79112 12.7203 4.17712 12.7663 4.62212 12.9113C4.94912 13.0203 5.38212 13.3523 5.84012 13.7023C6.6551 14.3273 7.6871 15.1183 8.8451 15.1183C9.2841 15.1183 9.7411 15.0053 10.2111 14.7263C11.5511 13.7763 12.0251 12.0173 12.0251 8.0043C12.0251 3.94228 11.5681 2.24528 10.1771 1.26128Z" fill="#fff"/>
</svg>

